<?xml version="1.0" encoding="UTF-8" standalone="no"?>
<!-- Created with Inkscape (http://www.inkscape.org/) -->

<svg
   width="210mm"
   height="297mm"
   viewBox="0 0 210 297"
   version="1.1"
   id="svg1429"
   inkscape:version="1.1.2 (0a00cf5339, 2022-02-04)"
   sodipodi:docname="Ravotisopabsiv'adi.svg"
   xmlns:inkscape="http://www.inkscape.org/namespaces/inkscape"
   xmlns:sodipodi="http://sodipodi.sourceforge.net/DTD/sodipodi-0.dtd"
   xmlns="http://www.w3.org/2000/svg"
   xmlns:svg="http://www.w3.org/2000/svg">
  <sodipodi:namedview
     id="namedview1431"
     pagecolor="#505050"
     bordercolor="#ffffff"
     borderopacity="1"
     inkscape:pageshadow="0"
     inkscape:pageopacity="0"
     inkscape:pagecheckerboard="1"
     inkscape:document-units="mm"
     showgrid="false"
     inkscape:object-paths="true"
     inkscape:snap-intersection-paths="true"
     inkscape:snap-center="true"
     inkscape:object-nodes="true"
     inkscape:snap-nodes="false"
     inkscape:snap-others="false"
     inkscape:zoom="0.77058782"
     inkscape:cx="406.18343"
     inkscape:cy="428.89336"
     inkscape:window-width="1471"
     inkscape:window-height="1020"
     inkscape:window-x="442"
     inkscape:window-y="22"
     inkscape:window-maximized="1"
     inkscape:current-layer="layer1" />
  <defs
     id="defs1426">
    <inkscape:path-effect
       effect="spiro"
       id="path-effect8794"
       is_visible="true"
       lpeversion="1" />
    <inkscape:path-effect
       effect="spiro"
       id="path-effect8051"
       is_visible="true"
       lpeversion="1" />
    <inkscape:path-effect
       effect="spiro"
       id="path-effect7934"
       is_visible="true"
       lpeversion="1" />
    <inkscape:path-effect
       effect="spiro"
       id="path-effect7711"
       is_visible="true"
       lpeversion="1" />
    <inkscape:path-effect
       effect="spiro"
       id="path-effect7294"
       is_visible="true"
       lpeversion="1" />
    <inkscape:path-effect
       effect="spiro"
       id="path-effect7257"
       is_visible="true"
       lpeversion="1" />
    <inkscape:path-effect
       effect="spiro"
       id="path-effect6548"
       is_visible="true"
       lpeversion="1" />
    <inkscape:path-effect
       effect="spiro"
       id="path-effect6511"
       is_visible="true"
       lpeversion="1" />
    <inkscape:path-effect
       effect="spiro"
       id="path-effect6021"
       is_visible="true"
       lpeversion="1" />
    <inkscape:path-effect
       effect="spiro"
       id="path-effect6017"
       is_visible="true"
       lpeversion="1" />
    <inkscape:path-effect
       effect="spiro"
       id="path-effect6013"
       is_visible="true"
       lpeversion="1" />
    <inkscape:path-effect
       effect="spiro"
       id="path-effect5976"
       is_visible="true"
       lpeversion="1" />
    <inkscape:path-effect
       effect="spiro"
       id="path-effect4668"
       is_visible="true"
       lpeversion="1" />
    <inkscape:path-effect
       effect="spiro"
       id="path-effect4631"
       is_visible="true"
       lpeversion="1" />
    <inkscape:path-effect
       effect="spiro"
       id="path-effect4594"
       is_visible="true"
       lpeversion="1" />
    <inkscape:path-effect
       effect="spiro"
       id="path-effect4557"
       is_visible="true"
       lpeversion="1" />
    <inkscape:path-effect
       effect="spiro"
       id="path-effect4241"
       is_visible="true"
       lpeversion="1" />
    <inkscape:path-effect
       effect="spiro"
       id="path-effect4204"
       is_visible="true"
       lpeversion="1" />
    <inkscape:path-effect
       effect="spiro"
       id="path-effect3840"
       is_visible="true"
       lpeversion="1" />
    <inkscape:path-effect
       effect="spiro"
       id="path-effect3803"
       is_visible="true"
       lpeversion="1" />
    <inkscape:path-effect
       effect="spiro"
       id="path-effect2615"
       is_visible="true"
       lpeversion="1" />
    <inkscape:path-effect
       effect="spiro"
       id="path-effect2578"
       is_visible="true"
       lpeversion="1" />
    <inkscape:path-effect
       effect="spiro"
       id="path-effect2013"
       is_visible="true"
       lpeversion="1" />
    <inkscape:path-effect
       effect="spiro"
       id="path-effect10568"
       is_visible="true"
       lpeversion="1" />
    <inkscape:path-effect
       effect="spiro"
       id="path-effect10568-3"
       is_visible="true"
       lpeversion="1" />
    <inkscape:path-effect
       effect="spiro"
       id="path-effect6017-0"
       is_visible="true"
       lpeversion="1" />
    <inkscape:path-effect
       effect="spiro"
       id="path-effect7294-1"
       is_visible="true"
       lpeversion="1" />
    <inkscape:path-effect
       effect="spiro"
       id="path-effect7711-7"
       is_visible="true"
       lpeversion="1" />
    <inkscape:path-effect
       effect="spiro"
       id="path-effect22892"
       is_visible="true"
       lpeversion="1" />
    <inkscape:path-effect
       effect="spiro"
       id="path-effect9576"
       is_visible="true"
       lpeversion="1" />
    <inkscape:path-effect
       effect="spiro"
       id="path-effect9576-3"
       is_visible="true"
       lpeversion="1" />
    <inkscape:path-effect
       effect="spiro"
       id="path-effect22006-5"
       is_visible="true"
       lpeversion="1" />
    <inkscape:path-effect
       effect="spiro"
       id="path-effect10568-36"
       is_visible="true"
       lpeversion="1" />
    <inkscape:path-effect
       effect="spiro"
       id="path-effect22006-5-5"
       is_visible="true"
       lpeversion="1" />
    <inkscape:path-effect
       effect="spiro"
       id="path-effect11311"
       is_visible="true"
       lpeversion="1" />
  </defs>
  <g
     inkscape:label="Layer 1"
     inkscape:groupmode="layer"
     id="layer1">
    <g
       id="g8737"
       transform="rotate(88.754093,137.46523,115.05819)">
      <circle
         style="opacity:0.721312;fill:none;fill-rule:evenodd;stroke:#000000;stroke-width:0.784931;stroke-linecap:round;stroke-miterlimit:4;stroke-dasharray:none"
         id="path10018"
         cx="17.340542"
         cy="155.9052"
         r="10.128901"
         transform="matrix(-0.88261907,0.47008891,0.47008891,0.88261907,0,0)" />
      <path
         style="fill:none;stroke:#000000;stroke-width:0.784891;stroke-linecap:butt;stroke-linejoin:miter;stroke-miterlimit:4;stroke-dasharray:none;stroke-opacity:1"
         d="m 68.101984,146.2312 42.183866,1.04673"
         id="path936-2-8" />
      <circle
         style="opacity:0.721312;fill:#000000;fill-rule:evenodd;stroke:#000000;stroke-width:0.785;stroke-linecap:round"
         id="path2070-3"
         cx="39.66053"
         cy="144.94652"
         r="1.8884393" />
    </g>
    <g
       id="g8168"
       style="stroke-width:0.784931;stroke-miterlimit:4;stroke-dasharray:none"
       transform="rotate(88.754093,131.44658,42.470038)">
      <path
         style="fill:none;stroke:#000000;stroke-width:0.784931;stroke-linecap:butt;stroke-linejoin:miter;stroke-miterlimit:4;stroke-dasharray:none;stroke-opacity:1"
         d="m 155.60051,60.42748 c 0.43164,-0.864065 0.91545,-1.702059 1.44794,-2.507898 0.53366,-0.807608 1.12301,-1.596073 1.44794,-2.507906 0.37649,-1.056516 0.36004,-2.27283 -0.1614,-3.265841 -0.26072,-0.496505 -0.64323,-0.930823 -1.11234,-1.238113 -0.46911,-0.30729 -1.02476,-0.48514 -1.58553,-0.490535 -0.56752,-0.0055 -1.13313,0.165868 -1.61174,0.470892 -0.47862,0.305024 -0.87013,0.7412 -1.13743,1.241867 -0.53458,1.001335 -0.55359,2.234152 -0.17111,3.30287 0.32479,0.90751 0.91082,1.692924 1.44184,2.497336 0.52987,0.802674 1.01163,1.637106 1.44183,2.497328"
         id="path7709"
         inkscape:path-effect="#path-effect7711"
         inkscape:original-d="m 155.60051,60.42748 c 0.48291,-0.835702 0.96556,-1.671669 1.44794,-2.507898 0.48239,-0.836231 0.96556,-1.671674 1.44794,-2.507906 0.48238,-0.836234 -1.90591,-3.329395 -2.85927,-4.994489 -0.95335,-1.665094 -1.94659,3.344016 -2.92028,5.015629 -0.9737,1.671611 0.96149,1.665156 1.44184,2.497336 0.48035,0.832181 0.96148,1.66515 1.44183,2.497328" />
      <path
         style="fill:none;stroke:#000000;stroke-width:0.784931;stroke-linecap:butt;stroke-linejoin:miter;stroke-miterlimit:4;stroke-dasharray:none;stroke-opacity:1"
         d="m 155.60051,60.42748 c 0.53249,0.805844 1.0163,1.643843 1.44794,2.507912 0.43258,0.865961 0.82074,1.770584 1.44794,2.507898 0.72672,0.854305 1.7883,1.448215 2.90899,1.493144 0.56035,0.02246 1.12773,-0.09164 1.62841,-0.34425 0.50067,-0.252615 0.93252,-0.644893 1.21758,-1.127834 0.28849,-0.488759 0.42292,-1.06425 0.39807,-1.631256 -0.0248,-0.567006 -0.20683,-1.12416 -0.50677,-1.605975 -0.59989,-0.963632 -1.65804,-1.596507 -2.77482,-1.799626 -0.94832,-0.172479 -1.92151,-0.05767 -2.88366,2e-6 -0.96008,0.05755 -1.9236,0.05754 -2.88368,-5e-6"
         id="path7932"
         inkscape:path-effect="#path-effect7934"
         inkscape:original-d="m 155.60051,60.42748 c 0.48291,0.836234 0.96556,1.672204 1.44794,2.507912 0.48239,0.835705 0.96556,1.672195 1.44794,2.507898 0.48238,0.835702 3.83692,0.01429 5.75498,0.02106 1.91806,0.0067 -1.92208,-3.35764 -2.88352,-5.036857 -0.96143,-1.679218 -1.92218,2.64e-4 -2.88366,2e-6 -0.96149,-2.62e-4 -1.92219,2.59e-4 -2.88368,-5e-6" />
      <path
         style="fill:none;stroke:#000000;stroke-width:0.784931;stroke-linecap:butt;stroke-linejoin:miter;stroke-miterlimit:4;stroke-dasharray:none;stroke-opacity:1"
         d="m 155.60051,60.42748 c -0.52987,0.802681 -1.01163,1.637117 -1.44183,2.497341 -0.43113,0.862081 -0.81831,1.762302 -1.44184,2.497328 -0.7343,0.865597 -1.81146,1.46554 -2.94593,1.503247 -0.56724,0.01885 -1.14074,-0.102122 -1.6442,-0.364104 -0.50347,-0.261981 -0.93465,-0.666143 -1.21368,-1.160363 -0.27571,-0.488338 -0.39951,-1.058468 -0.36795,-1.618375 0.0316,-0.559906 0.21644,-1.108326 0.51607,-1.582368 0.59925,-0.948083 1.64439,-1.570486 2.7476,-1.772693 0.95214,-0.174517 1.92965,-0.05835 2.89589,2e-6 0.96412,0.05823 1.93175,0.05823 2.89587,-5e-6"
         id="path8049"
         inkscape:path-effect="#path-effect8051"
         inkscape:original-d="m 155.60051,60.42748 c -0.48035,0.83271 -0.96095,1.665158 -1.44183,2.497341 -0.48087,0.832181 -0.96097,1.66515 -1.44184,2.497328 -0.48088,0.832179 -3.86894,-0.01389 -5.80381,-0.02122 -1.93487,-0.0073 1.93075,-3.315362 2.89572,-4.973436 0.96498,-1.658078 1.93086,2.64e-4 2.89589,2e-6 0.96503,-2.62e-4 1.93084,2.59e-4 2.89587,-5e-6" />
    </g>
    <g
       id="g8757"
       transform="rotate(88.754093,137.46523,115.05819)">
      <circle
         style="opacity:0.721312;fill:none;fill-rule:evenodd;stroke:#000000;stroke-width:0.784891;stroke-miterlimit:4;stroke-dasharray:none"
         id="path879-6"
         cx="148.57886"
         cy="145.89342"
         r="10.937934"
         transform="matrix(-0.06267301,0.99803411,0.99803411,0.06267301,0,0)" />
      <g
         id="g8730">
        <path
           style="fill:none;stroke:#000000;stroke-width:0.784931;stroke-linecap:butt;stroke-linejoin:miter;stroke-miterlimit:4;stroke-dasharray:none;stroke-opacity:1"
           d="m 130.96886,147.87661 -15.17366,8.1815"
           id="path2080"
           sodipodi:nodetypes="cc" />
        <path
           style="fill:none;stroke:#000000;stroke-width:0.784931;stroke-linecap:butt;stroke-linejoin:miter;stroke-miterlimit:4;stroke-dasharray:none;stroke-opacity:1"
           d="M 129.82616,166.07355 115.7952,156.05811"
           id="path2080-6"
           sodipodi:nodetypes="cc" />
        <path
           style="fill:none;stroke:#000000;stroke-width:0.784931;stroke-linecap:butt;stroke-linejoin:miter;stroke-miterlimit:4;stroke-dasharray:none;stroke-opacity:1"
           d="M 115.7952,156.05811 83.23021,154.183"
           id="path3107" />
      </g>
      <g
         id="g10793"
         transform="matrix(1.1124445,0,0,-1.1124445,87.248433,434.40454)">
        <path
           style="fill:none;stroke:#000000;stroke-width:0.705556;stroke-linecap:round;stroke-linejoin:miter;stroke-miterlimit:4;stroke-dasharray:none;stroke-opacity:1"
           d="m 29.216765,243.01482 c 1.03338,-2.84427 2.959332,-5.35691 5.437435,-7.09379 2.478104,-1.73688 5.497051,-2.69007 8.523228,-2.69111 3.022924,-0.001 6.039306,0.948 8.51707,2.67969 2.477764,1.73169 4.405652,4.23817 5.443595,7.07732"
           id="path9574"
           inkscape:path-effect="#path-effect9576"
           inkscape:original-d="m 29.216765,243.01482 c 4.65382,-3.26137 9.307372,-6.52301 13.960663,-9.7849 4.65329,-3.2619 9.307375,6.50494 13.960665,9.75701" />
        <path
           style="fill:none;stroke:#000000;stroke-width:0.705556;stroke-linecap:round;stroke-linejoin:miter;stroke-miterlimit:4;stroke-dasharray:none;stroke-opacity:1"
           d="m 29.216765,243.01482 c 0.04938,-3.02577 1.050682,-6.02911 2.826928,-8.47915 1.776246,-2.45004 4.319328,-4.33561 7.179744,-5.32342 2.857341,-0.98675 6.018312,-1.07323 8.925333,-0.2442 2.907021,0.82904 5.546883,2.56983 7.453928,4.9153"
           id="path9574-6"
           inkscape:path-effect="#path-effect9576-3"
           inkscape:original-d="m 29.216765,243.01482 c 3.335894,-4.60069 6.671447,-9.20155 10.006672,-13.80257 3.335221,-4.60102 10.919846,3.11423 16.379261,4.6711" />
      </g>
    </g>
    <g
       id="g8537"
       transform="rotate(90.326172,31.811026,69.434449)"
       style="stroke-width:1.00013;stroke-miterlimit:4;stroke-dasharray:none">
      <path
         style="fill:none;stroke:#000000;stroke-width:1.00013;stroke-linecap:butt;stroke-linejoin:miter;stroke-miterlimit:4;stroke-dasharray:none;stroke-opacity:1"
         d="M 23.691329,4.1202311 C 17.623574,3.8778351 11.491404,5.8489511 6.7013395,9.5814687 1.9112753,13.313986 -1.4988346,18.778414 -2.7468208,24.721387 c -0.7348266,3.499281 -0.7322718,7.176734 0.2200355,10.623189 0.9523073,3.446455 2.87762873,6.649864 5.6169588,8.947909 2.3331846,1.957326 5.2324018,3.23185 8.2520375,3.627675 3.019636,0.395825 6.149396,-0.0884 8.908232,-1.378243 2.758836,-1.289846 5.137343,-3.380916 6.76994,-5.951811 1.632598,-2.570896 2.513721,-5.612851 2.507939,-8.658314"
         id="path10566-7"
         inkscape:path-effect="#path-effect10568-3"
         inkscape:original-d="M 23.691329,4.1202311 C 14.878877,10.987548 6.0661605,17.8546 -2.7468208,24.721387 c -8.8129812,6.866788 3.891594,13.047664 5.8369943,19.571098 1.9454,6.523434 17.6256975,-8.240199 26.4381485,-12.360693" />
      <path
         style="fill:none;stroke:#000000;stroke-width:1.00013;stroke-linecap:butt;stroke-linejoin:miter;stroke-miterlimit:4;stroke-dasharray:none;stroke-opacity:1"
         d="M 29.528322,31.931792 H 18.54104 l 3.721266,13.484548"
         id="path10570-5" />
    </g>
    <circle
       style="opacity:0.721312;fill:#000000;fill-rule:evenodd;stroke:#000000;stroke-width:0.785;stroke-linecap:round"
       id="path2070-3-2"
       cx="57.98074"
       cy="-75.394356"
       r="1.8884393"
       transform="rotate(88.754093)" />
    <circle
       style="opacity:0.721312;fill:#000000;fill-rule:evenodd;stroke:#000000;stroke-width:0.785;stroke-linecap:round"
       id="path2070-3-0"
       cx="68.452995"
       cy="-75.222679"
       r="1.8884393"
       transform="rotate(88.754093)" />
    <path
       style="fill:none;stroke:#000000;stroke-width:0.784931;stroke-linecap:butt;stroke-linejoin:miter;stroke-miterlimit:4;stroke-dasharray:none;stroke-opacity:1"
       d="m 104.57362,120.23741 c 8.38503,3.27361 17.77833,3.90873 26.52771,1.79365 8.74938,-2.11507 16.81533,-6.9708 22.77911,-13.71309 C 162.94116,98.074464 166.83821,83.760281 165.40729,70.1596 163.97637,56.558918 157.49385,43.738292 148.27057,33.640906 135.98244,20.188201 118.21071,11.275133 99.997224,11.767694 88.363805,12.082305 76.89689,16.205149 67.590103,23.192219 58.283316,30.179289 51.154685,39.97657 47.157164,50.906128 c -5.178312,14.157939 -5.049628,30.096236 -0.159771,44.356371 4.889858,14.260131 14.428522,26.799101 26.543242,35.771041 7.523196,5.57154 16.00662,9.81543 23.1599,15.85456 14.749175,12.45194 22.696865,32.51219 20.477855,51.68678"
       id="path8792"
       inkscape:path-effect="#path-effect8794"
       inkscape:original-d="m 104.57362,120.23741 c 15.68775,0.59711 33.61902,-12.51581 49.30682,-11.91944 15.6878,0.59636 -4.39169,-59.426288 -5.60987,-74.677064 C 146.888,16.332107 121.73827,37.904305 99.997224,11.767694 78.256177,-14.368917 66.806189,37.769266 47.157164,50.906128 27.508132,64.042999 61.406112,97.988123 73.540635,131.03354 c 12.134519,33.04542 18.848046,13.82793 23.1599,15.85456 4.311845,2.02662 13.651875,34.45823 20.477855,51.68678"
       sodipodi:nodetypes="cssssssc" />
    <rect
       style="opacity:0.721312;fill:none;fill-rule:evenodd;stroke:#000000;stroke-width:1;stroke-linecap:round;stroke-miterlimit:4;stroke-dasharray:none;stroke-opacity:1"
       id="rect9011"
       width="12.017341"
       height="12.017341"
       x="173.74858"
       y="30.658607"
       transform="rotate(40.983539)" />
    <g
       id="g1035">
      <g
         id="g8393"
         transform="rotate(88.754093,137.46523,115.05819)"
         style="stroke-width:1.00013;stroke-miterlimit:4;stroke-dasharray:none">
        <path
           style="fill:none;stroke:#000000;stroke-width:1.00013;stroke-linecap:butt;stroke-linejoin:miter;stroke-miterlimit:4;stroke-dasharray:none;stroke-opacity:1"
           d="m 110.28585,147.27793 c 6.07226,0.0634 12.14366,-2.08759 16.82162,-5.95968 4.67796,-3.8721 7.92551,-9.43467 8.99777,-15.41185 0.63136,-3.51942 0.5204,-7.1952 -0.53308,-10.61208 -1.05349,-3.41689 -3.0724,-6.56215 -5.87828,-8.77845 -2.38987,-1.8877 -5.32539,-3.07621 -8.35539,-3.38285 -3.02999,-0.30664 -6.14412,0.26963 -8.86373,1.64023 -2.71962,1.37061 -5.03545,3.53089 -6.59156,6.14879 -1.5561,2.6179 -2.34717,5.68451 -2.25162,8.72848"
           id="path10566"
           inkscape:path-effect="#path-effect10568"
           inkscape:original-d="m 110.28585,147.27793 c 8.6062,-7.1241 17.21266,-14.24794 25.81939,-21.37153 8.60674,-7.12359 -4.27451,-12.92728 -6.41136,-19.39053 -2.13685,-6.46326 -17.37514,8.75618 -26.0623,13.13465" />
        <path
           style="fill:none;stroke:#000000;stroke-width:1.00013;stroke-linecap:butt;stroke-linejoin:miter;stroke-miterlimit:4;stroke-dasharray:none;stroke-opacity:1"
           d="m 103.63158,119.65052 10.98251,-0.32388 -4.11714,-13.36899"
           id="path10570" />
      </g>
      <path
         style="fill:none;stroke:#000000;stroke-width:1.00013;stroke-linecap:round;stroke-linejoin:miter;stroke-miterlimit:4;stroke-dasharray:none;stroke-opacity:1"
         d="m 132.23726,73.930444 c -3.14443,0.665412 -5.93939,2.821155 -7.38166,5.693454 -1.44226,2.872299 -1.5019,6.401529 -0.1575,9.320916 1.34496,2.920601 3.92321,5.086911 6.62732,6.826621 1.09602,0.705135 2.24201,1.370341 3.12843,2.32572 0.4432,0.477689 0.81672,1.026771 1.04734,1.636223 0.23063,0.609452 0.3139,1.281592 0.18559,1.920462 -0.12386,0.6167 -0.44596,1.19199 -0.90697,1.61991 -0.46102,0.42793 -1.05866,0.70637 -1.68286,0.78404 -0.6242,0.0777 -1.27186,-0.0458 -1.82368,-0.34773 -0.55183,-0.3019 -1.00509,-0.78071 -1.2763,-1.34825"
         id="path22004"
         inkscape:path-effect="#path-effect22006-5"
         inkscape:original-d="m 132.23726,73.930444 c -2.51286,5.004559 -5.02593,10.009355 -7.53916,15.01437 -2.51322,5.005023 4.4184,4.550852 6.62732,6.826621 2.20894,2.275759 2.90775,3.92137 4.36136,5.882405 1.45361,1.96103 -3.79303,0.47179 -5.68981,0.70797" />
    </g>
    <g
       id="g1320"
       style="stroke-width:1.00013;stroke-miterlimit:4;stroke-dasharray:none">
      <g
         id="g10680"
         transform="rotate(-108.46812,102.27263,73.369645)"
         style="stroke-width:1.00013;stroke-miterlimit:4;stroke-dasharray:none">
        <path
           style="fill:none;stroke:#000000;stroke-width:1.00013;stroke-linecap:butt;stroke-linejoin:miter;stroke-miterlimit:4;stroke-dasharray:none;stroke-opacity:1"
           d="M 23.691329,4.1202311 C 17.623574,3.8778351 11.491404,5.8489511 6.7013395,9.5814687 1.9112753,13.313986 -1.4988346,18.778414 -2.7468208,24.721387 c -0.7348266,3.499281 -0.7322718,7.176734 0.2200355,10.623189 0.9523073,3.446455 2.87762873,6.649864 5.6169588,8.947909 2.3331846,1.957326 5.2324018,3.23185 8.2520375,3.627675 3.019636,0.395825 6.149396,-0.0884 8.908232,-1.378243 2.758836,-1.289846 5.137343,-3.380916 6.76994,-5.951811 1.632598,-2.570896 2.513721,-5.612851 2.507939,-8.658314"
           id="path10566-75"
           inkscape:path-effect="#path-effect10568-36"
           inkscape:original-d="M 23.691329,4.1202311 C 14.878877,10.987548 6.0661605,17.8546 -2.7468208,24.721387 c -8.8129812,6.866788 3.891594,13.047664 5.8369943,19.571098 1.9454,6.523434 17.6256975,-8.240199 26.4381485,-12.360693" />
        <path
           style="fill:none;stroke:#000000;stroke-width:1.00013;stroke-linecap:butt;stroke-linejoin:miter;stroke-miterlimit:4;stroke-dasharray:none;stroke-opacity:1"
           d="M 29.528322,31.931792 H 18.54104 l 3.721266,13.484548"
           id="path10570-3" />
      </g>
      <path
         style="fill:none;stroke:#000000;stroke-width:1.00013;stroke-linecap:round;stroke-linejoin:miter;stroke-miterlimit:4;stroke-dasharray:none;stroke-opacity:1"
         d="m 83.00675,149.25529 c -2.846337,1.69033 -4.834303,4.75232 -5.220018,8.04019 -0.385715,3.28787 0.839595,6.72682 3.217431,9.03003 1.316262,1.27495 2.944162,2.19961 4.659935,2.84317 1.715773,0.64356 3.522411,1.01487 5.336081,1.27688 1.450847,0.20959 2.935145,0.35699 4.28382,0.93142 0.674337,0.28721 1.308983,0.68228 1.821071,1.20668 0.512089,0.52439 0.897775,1.18269 1.044984,1.90071 0.149232,0.72789 0.04593,1.50508 -0.288259,2.16871 -0.334189,0.66364 -0.897086,1.20939 -1.570739,1.52289 -0.673653,0.31351 -1.453665,0.39272 -2.176591,0.22105 -0.722926,-0.17167 -1.384049,-0.59311 -1.844833,-1.17601"
         id="path22004-6"
         inkscape:path-effect="#path-effect22006-5-5"
         inkscape:original-d="m 83.00675,149.25529 c -0.667431,5.68978 -1.33496,11.37986 -2.002587,17.07022 -0.667627,5.69036 6.664111,2.74641 9.996016,4.12005 3.331912,1.37361 4.766679,2.69225 7.149875,4.03881 2.383186,1.34656 -3.920186,1.82416 -5.880422,2.73664" />
    </g>
    <g
       id="g1349">
      <path
         style="fill:none;stroke:#000000;stroke-width:0.841066;stroke-linecap:butt;stroke-linejoin:miter;stroke-miterlimit:4;stroke-dasharray:none;stroke-opacity:1"
         d="m 64.690029,195.15221 14.307486,-20.72732 9.291147,24.04646"
         id="path9145-7"
         sodipodi:nodetypes="ccc" />
      <path
         style="fill:none;stroke:#000000;stroke-width:1.00013;stroke-linecap:round;stroke-linejoin:miter;stroke-miterlimit:4;stroke-dasharray:none;stroke-opacity:1"
         d="m 69.557328,166.10272 c 2.950873,-0.44822 6.052851,0.17526 8.601371,1.72884 2.548521,1.55357 4.523861,4.02522 5.477355,6.85354 0.196677,0.5834 0.351289,1.18077 0.563569,1.75868 0.21228,0.5779 0.486692,1.14208 0.892957,1.60466 0.406265,0.46259 0.956276,0.81846 1.565935,0.90419 0.30483,0.0429 0.620581,0.0171 0.910411,-0.0866 0.289831,-0.10372 0.552706,-0.28654 0.741035,-0.53004 0.239576,-0.30976 0.351114,-0.7091 0.339654,-1.10053 -0.01146,-0.39142 -0.141022,-0.7744 -0.341074,-1.11104 -0.400105,-0.67327 -1.058767,-1.14817 -1.721166,-1.56603 -5.618253,-3.54418 -12.938713,-4.23667 -19.121894,-1.80886"
         id="path11309"
         inkscape:path-effect="#path-effect11311"
         inkscape:original-d="m 69.557328,166.10272 c 4.48873,3.51016 9.590221,5.07268 14.078726,8.58238 4.488502,3.5097 10.964288,-16.29105 4.673907,3.65091 -0.509386,1.61458 -2.403706,-2.06912 -1.722586,-3.7776 0.681109,-1.70847 -12.649753,-1.51727 -19.121894,-1.80886"
         sodipodi:nodetypes="csssc" />
    </g>
  </g>
</svg>
