<?xml version="1.0" encoding="UTF-8" standalone="no"?>
<!-- Created with Inkscape (http://www.inkscape.org/) -->

<svg
   width="210mm"
   height="297mm"
   viewBox="0 0 210 297"
   version="1.1"
   id="svg1429"
   inkscape:version="1.1.2 (0a00cf5339, 2022-02-04)"
   sodipodi:docname="Ravotisopabsiv'adi.svg"
   xmlns:inkscape="http://www.inkscape.org/namespaces/inkscape"
   xmlns:sodipodi="http://sodipodi.sourceforge.net/DTD/sodipodi-0.dtd"
   xmlns="http://www.w3.org/2000/svg"
   xmlns:svg="http://www.w3.org/2000/svg">
  <sodipodi:namedview
     id="namedview1431"
     pagecolor="#505050"
     bordercolor="#ffffff"
     borderopacity="1"
     inkscape:pageshadow="0"
     inkscape:pageopacity="0"
     inkscape:pagecheckerboard="1"
     inkscape:document-units="mm"
     showgrid="false"
     inkscape:object-paths="true"
     inkscape:snap-intersection-paths="true"
     inkscape:snap-center="true"
     inkscape:object-nodes="true"
     inkscape:snap-nodes="false"
     inkscape:snap-others="false"
     inkscape:zoom="0.77058782"
     inkscape:cx="406.83228"
     inkscape:cy="429.54221"
     inkscape:window-width="1920"
     inkscape:window-height="1027"
     inkscape:window-x="0"
     inkscape:window-y="22"
     inkscape:window-maximized="1"
     inkscape:current-layer="layer1" />
  <defs
     id="defs1426">
    <inkscape:path-effect
       effect="spiro"
       id="path-effect8794"
       is_visible="true"
       lpeversion="1" />
    <inkscape:path-effect
       effect="spiro"
       id="path-effect8051"
       is_visible="true"
       lpeversion="1" />
    <inkscape:path-effect
       effect="spiro"
       id="path-effect7934"
       is_visible="true"
       lpeversion="1" />
    <inkscape:path-effect
       effect="spiro"
       id="path-effect7711"
       is_visible="true"
       lpeversion="1" />
    <inkscape:path-effect
       effect="spiro"
       id="path-effect7294"
       is_visible="true"
       lpeversion="1" />
    <inkscape:path-effect
       effect="spiro"
       id="path-effect7257"
       is_visible="true"
       lpeversion="1" />
    <inkscape:path-effect
       effect="spiro"
       id="path-effect6548"
       is_visible="true"
       lpeversion="1" />
    <inkscape:path-effect
       effect="spiro"
       id="path-effect6511"
       is_visible="true"
       lpeversion="1" />
    <inkscape:path-effect
       effect="spiro"
       id="path-effect6021"
       is_visible="true"
       lpeversion="1" />
    <inkscape:path-effect
       effect="spiro"
       id="path-effect6017"
       is_visible="true"
       lpeversion="1" />
    <inkscape:path-effect
       effect="spiro"
       id="path-effect6013"
       is_visible="true"
       lpeversion="1" />
    <inkscape:path-effect
       effect="spiro"
       id="path-effect5976"
       is_visible="true"
       lpeversion="1" />
    <inkscape:path-effect
       effect="spiro"
       id="path-effect4668"
       is_visible="true"
       lpeversion="1" />
    <inkscape:path-effect
       effect="spiro"
       id="path-effect4631"
       is_visible="true"
       lpeversion="1" />
    <inkscape:path-effect
       effect="spiro"
       id="path-effect4594"
       is_visible="true"
       lpeversion="1" />
    <inkscape:path-effect
       effect="spiro"
       id="path-effect4557"
       is_visible="true"
       lpeversion="1" />
    <inkscape:path-effect
       effect="spiro"
       id="path-effect4241"
       is_visible="true"
       lpeversion="1" />
    <inkscape:path-effect
       effect="spiro"
       id="path-effect4204"
       is_visible="true"
       lpeversion="1" />
    <inkscape:path-effect
       effect="spiro"
       id="path-effect3840"
       is_visible="true"
       lpeversion="1" />
    <inkscape:path-effect
       effect="spiro"
       id="path-effect3803"
       is_visible="true"
       lpeversion="1" />
    <inkscape:path-effect
       effect="spiro"
       id="path-effect2615"
       is_visible="true"
       lpeversion="1" />
    <inkscape:path-effect
       effect="spiro"
       id="path-effect2578"
       is_visible="true"
       lpeversion="1" />
    <inkscape:path-effect
       effect="spiro"
       id="path-effect2013"
       is_visible="true"
       lpeversion="1" />
    <inkscape:path-effect
       effect="spiro"
       id="path-effect10568"
       is_visible="true"
       lpeversion="1" />
    <inkscape:path-effect
       effect="spiro"
       id="path-effect10568-3"
       is_visible="true"
       lpeversion="1" />
    <inkscape:path-effect
       effect="spiro"
       id="path-effect6017-0"
       is_visible="true"
       lpeversion="1" />
    <inkscape:path-effect
       effect="spiro"
       id="path-effect7294-1"
       is_visible="true"
       lpeversion="1" />
    <inkscape:path-effect
       effect="spiro"
       id="path-effect7711-7"
       is_visible="true"
       lpeversion="1" />
    <inkscape:path-effect
       effect="spiro"
       id="path-effect22892"
       is_visible="true"
       lpeversion="1" />
    <inkscape:path-effect
       effect="spiro"
       id="path-effect9576"
       is_visible="true"
       lpeversion="1" />
    <inkscape:path-effect
       effect="spiro"
       id="path-effect9576-3"
       is_visible="true"
       lpeversion="1" />
  </defs>
  <g
     inkscape:label="Layer 1"
     inkscape:groupmode="layer"
     id="layer1">
    <g
       id="g10030"
       transform="rotate(49.280597,182.50264,119.03212)">
      <g
         id="g8737"
         transform="rotate(39.473496,94.291714,150.43879)">
        <circle
           style="opacity:0.721312;fill:none;fill-rule:evenodd;stroke:#000000;stroke-width:0.784931;stroke-linecap:round;stroke-miterlimit:4;stroke-dasharray:none"
           id="path10018"
           cx="17.340542"
           cy="155.9052"
           r="10.128901"
           transform="matrix(-0.88261907,0.47008891,0.47008891,0.88261907,0,0)" />
        <path
           style="fill:none;stroke:#000000;stroke-width:0.784891;stroke-linecap:butt;stroke-linejoin:miter;stroke-miterlimit:4;stroke-dasharray:none;stroke-opacity:1"
           d="m 68.101984,146.2312 42.183866,1.04673"
           id="path936-2-8" />
        <circle
           style="opacity:0.721312;fill:#000000;fill-rule:evenodd;stroke:#000000;stroke-width:0.785;stroke-linecap:round"
           id="path2070-3"
           cx="39.66053"
           cy="144.94652"
           r="1.8884393" />
      </g>
      <g
         id="g8168"
         style="stroke-width:0.784931;stroke-miterlimit:4;stroke-dasharray:none"
         transform="rotate(39.473496,20.286179,18.993632)">
        <path
           style="fill:none;stroke:#000000;stroke-width:0.784931;stroke-linecap:butt;stroke-linejoin:miter;stroke-miterlimit:4;stroke-dasharray:none;stroke-opacity:1"
           d="m 155.60051,60.42748 c 0.43164,-0.864065 0.91545,-1.702059 1.44794,-2.507898 0.53366,-0.807608 1.12301,-1.596073 1.44794,-2.507906 0.37649,-1.056516 0.36004,-2.27283 -0.1614,-3.265841 -0.26072,-0.496505 -0.64323,-0.930823 -1.11234,-1.238113 -0.46911,-0.30729 -1.02476,-0.48514 -1.58553,-0.490535 -0.56752,-0.0055 -1.13313,0.165868 -1.61174,0.470892 -0.47862,0.305024 -0.87013,0.7412 -1.13743,1.241867 -0.53458,1.001335 -0.55359,2.234152 -0.17111,3.30287 0.32479,0.90751 0.91082,1.692924 1.44184,2.497336 0.52987,0.802674 1.01163,1.637106 1.44183,2.497328"
           id="path7709"
           inkscape:path-effect="#path-effect7711"
           inkscape:original-d="m 155.60051,60.42748 c 0.48291,-0.835702 0.96556,-1.671669 1.44794,-2.507898 0.48239,-0.836231 0.96556,-1.671674 1.44794,-2.507906 0.48238,-0.836234 -1.90591,-3.329395 -2.85927,-4.994489 -0.95335,-1.665094 -1.94659,3.344016 -2.92028,5.015629 -0.9737,1.671611 0.96149,1.665156 1.44184,2.497336 0.48035,0.832181 0.96148,1.66515 1.44183,2.497328" />
        <path
           style="fill:none;stroke:#000000;stroke-width:0.784931;stroke-linecap:butt;stroke-linejoin:miter;stroke-miterlimit:4;stroke-dasharray:none;stroke-opacity:1"
           d="m 155.60051,60.42748 c 0.53249,0.805844 1.0163,1.643843 1.44794,2.507912 0.43258,0.865961 0.82074,1.770584 1.44794,2.507898 0.72672,0.854305 1.7883,1.448215 2.90899,1.493144 0.56035,0.02246 1.12773,-0.09164 1.62841,-0.34425 0.50067,-0.252615 0.93252,-0.644893 1.21758,-1.127834 0.28849,-0.488759 0.42292,-1.06425 0.39807,-1.631256 -0.0248,-0.567006 -0.20683,-1.12416 -0.50677,-1.605975 -0.59989,-0.963632 -1.65804,-1.596507 -2.77482,-1.799626 -0.94832,-0.172479 -1.92151,-0.05767 -2.88366,2e-6 -0.96008,0.05755 -1.9236,0.05754 -2.88368,-5e-6"
           id="path7932"
           inkscape:path-effect="#path-effect7934"
           inkscape:original-d="m 155.60051,60.42748 c 0.48291,0.836234 0.96556,1.672204 1.44794,2.507912 0.48239,0.835705 0.96556,1.672195 1.44794,2.507898 0.48238,0.835702 3.83692,0.01429 5.75498,0.02106 1.91806,0.0067 -1.92208,-3.35764 -2.88352,-5.036857 -0.96143,-1.679218 -1.92218,2.64e-4 -2.88366,2e-6 -0.96149,-2.62e-4 -1.92219,2.59e-4 -2.88368,-5e-6" />
        <path
           style="fill:none;stroke:#000000;stroke-width:0.784931;stroke-linecap:butt;stroke-linejoin:miter;stroke-miterlimit:4;stroke-dasharray:none;stroke-opacity:1"
           d="m 155.60051,60.42748 c -0.52987,0.802681 -1.01163,1.637117 -1.44183,2.497341 -0.43113,0.862081 -0.81831,1.762302 -1.44184,2.497328 -0.7343,0.865597 -1.81146,1.46554 -2.94593,1.503247 -0.56724,0.01885 -1.14074,-0.102122 -1.6442,-0.364104 -0.50347,-0.261981 -0.93465,-0.666143 -1.21368,-1.160363 -0.27571,-0.488338 -0.39951,-1.058468 -0.36795,-1.618375 0.0316,-0.559906 0.21644,-1.108326 0.51607,-1.582368 0.59925,-0.948083 1.64439,-1.570486 2.7476,-1.772693 0.95214,-0.174517 1.92965,-0.05835 2.89589,2e-6 0.96412,0.05823 1.93175,0.05823 2.89587,-5e-6"
           id="path8049"
           inkscape:path-effect="#path-effect8051"
           inkscape:original-d="m 155.60051,60.42748 c -0.48035,0.83271 -0.96095,1.665158 -1.44183,2.497341 -0.48087,0.832181 -0.96097,1.66515 -1.44184,2.497328 -0.48088,0.832179 -3.86894,-0.01389 -5.80381,-0.02122 -1.93487,-0.0073 1.93075,-3.315362 2.89572,-4.973436 0.96498,-1.658078 1.93086,2.64e-4 2.89589,2e-6 0.96503,-2.62e-4 1.93084,2.59e-4 2.89587,-5e-6" />
      </g>
      <g
         id="g8401"
         transform="rotate(39.473496,94.291714,150.43879)">
        <g
           id="g8393">
          <path
             style="fill:none;stroke:#000000;stroke-width:0.784931;stroke-linecap:butt;stroke-linejoin:miter;stroke-miterlimit:4;stroke-dasharray:none;stroke-opacity:1"
             d="m 110.28585,147.27793 c 6.07226,0.0634 12.14366,-2.08759 16.82162,-5.95968 4.67796,-3.8721 7.92551,-9.43467 8.99777,-15.41185 0.63136,-3.51942 0.5204,-7.1952 -0.53308,-10.61208 -1.05349,-3.41689 -3.0724,-6.56215 -5.87828,-8.77845 -2.38987,-1.8877 -5.32539,-3.07621 -8.35539,-3.38285 -3.02999,-0.30664 -6.14412,0.26963 -8.86373,1.64023 -2.71962,1.37061 -5.03545,3.53089 -6.59156,6.14879 -1.5561,2.6179 -2.34717,5.68451 -2.25162,8.72848"
             id="path10566"
             inkscape:path-effect="#path-effect10568"
             inkscape:original-d="m 110.28585,147.27793 c 8.6062,-7.1241 17.21266,-14.24794 25.81939,-21.37153 8.60674,-7.12359 -4.27451,-12.92728 -6.41136,-19.39053 -2.13685,-6.46326 -17.37514,8.75618 -26.0623,13.13465" />
          <path
             style="fill:none;stroke:#000000;stroke-width:0.784931;stroke-linecap:butt;stroke-linejoin:miter;stroke-miterlimit:4;stroke-dasharray:none;stroke-opacity:1"
             d="m 103.63158,119.65052 10.98251,-0.32388 -4.11714,-13.36899"
             id="path10570" />
        </g>
        <g
           id="g23014"
           transform="matrix(0.7304981,0.16873501,0.13007313,-0.56312069,-42.192723,228.76696)"
           style="stroke-width:1.19243;stroke-miterlimit:4;stroke-dasharray:none">
          <path
             style="fill:none;stroke:#000000;stroke-width:1.19243;stroke-linecap:round;stroke-linejoin:miter;stroke-miterlimit:4;stroke-dasharray:none;stroke-opacity:1"
             d="m 149.05208,238.45782 c 2.10223,-2.58742 5.04846,-4.4776 8.27667,-5.30996 3.2282,-0.83236 6.72108,-0.60244 9.81232,0.6459 2.92603,1.18162 5.47963,3.26731 7.22174,5.89846 1.74211,2.63114 2.66522,5.7964 2.61061,8.95154"
             id="path22890"
             inkscape:path-effect="#path-effect22892"
             inkscape:original-d="m 149.05208,238.45782 c 6.02993,-1.55443 12.05959,-3.10911 18.08899,-4.66406 6.02939,-1.55495 6.55516,9.90026 9.83235,14.85" />
          <path
             style="fill:none;stroke:#000000;stroke-width:1.19243;stroke-linecap:round;stroke-linejoin:miter;stroke-miterlimit:4;stroke-dasharray:none;stroke-opacity:1"
             d="m 176.97342,248.64376 c 1.37637,-1.69739 2.75247,-3.39505 4.12832,-5.09297"
             id="path22894" />
        </g>
      </g>
      <g
         id="g8757"
         transform="rotate(39.473496,94.291714,150.43879)">
        <circle
           style="opacity:0.721312;fill:none;fill-rule:evenodd;stroke:#000000;stroke-width:0.784891;stroke-miterlimit:4;stroke-dasharray:none"
           id="path879-6"
           cx="148.57886"
           cy="145.89342"
           r="10.937934"
           transform="matrix(-0.06267301,0.99803411,0.99803411,0.06267301,0,0)" />
        <g
           id="g8730">
          <path
             style="fill:none;stroke:#000000;stroke-width:0.784931;stroke-linecap:butt;stroke-linejoin:miter;stroke-miterlimit:4;stroke-dasharray:none;stroke-opacity:1"
             d="m 130.96886,147.87661 -15.17366,8.1815"
             id="path2080"
             sodipodi:nodetypes="cc" />
          <path
             style="fill:none;stroke:#000000;stroke-width:0.784931;stroke-linecap:butt;stroke-linejoin:miter;stroke-miterlimit:4;stroke-dasharray:none;stroke-opacity:1"
             d="M 129.82616,166.07355 115.7952,156.05811"
             id="path2080-6"
             sodipodi:nodetypes="cc" />
          <path
             style="fill:none;stroke:#000000;stroke-width:0.784931;stroke-linecap:butt;stroke-linejoin:miter;stroke-miterlimit:4;stroke-dasharray:none;stroke-opacity:1"
             d="M 115.7952,156.05811 83.23021,154.183"
             id="path3107" />
        </g>
        <g
           id="g10793"
           transform="matrix(1.1124445,0,0,-1.1124445,87.248433,434.40454)">
          <path
             style="fill:none;stroke:#000000;stroke-width:0.705556;stroke-linecap:round;stroke-linejoin:miter;stroke-miterlimit:4;stroke-dasharray:none;stroke-opacity:1"
             d="m 29.216765,243.01482 c 1.03338,-2.84427 2.959332,-5.35691 5.437435,-7.09379 2.478104,-1.73688 5.497051,-2.69007 8.523228,-2.69111 3.022924,-0.001 6.039306,0.948 8.51707,2.67969 2.477764,1.73169 4.405652,4.23817 5.443595,7.07732"
             id="path9574"
             inkscape:path-effect="#path-effect9576"
             inkscape:original-d="m 29.216765,243.01482 c 4.65382,-3.26137 9.307372,-6.52301 13.960663,-9.7849 4.65329,-3.2619 9.307375,6.50494 13.960665,9.75701" />
          <path
             style="fill:none;stroke:#000000;stroke-width:0.705556;stroke-linecap:round;stroke-linejoin:miter;stroke-miterlimit:4;stroke-dasharray:none;stroke-opacity:1"
             d="m 29.216765,243.01482 c 0.04938,-3.02577 1.050682,-6.02911 2.826928,-8.47915 1.776246,-2.45004 4.319328,-4.33561 7.179744,-5.32342 2.857341,-0.98675 6.018312,-1.07323 8.925333,-0.2442 2.907021,0.82904 5.546883,2.56983 7.453928,4.9153"
             id="path9574-6"
             inkscape:path-effect="#path-effect9576-3"
             inkscape:original-d="m 29.216765,243.01482 c 3.335894,-4.60069 6.671447,-9.20155 10.006672,-13.80257 3.335221,-4.60102 10.919846,3.11423 16.379261,4.6711" />
        </g>
      </g>
      <g
         id="g8747"
         transform="rotate(39.473496,94.291714,150.43879)">
        <g
           id="g8537"
           transform="rotate(1.572079,-5415.3637,2248.9615)">
          <path
             style="fill:none;stroke:#000000;stroke-width:0.784931;stroke-linecap:butt;stroke-linejoin:miter;stroke-miterlimit:4;stroke-dasharray:none;stroke-opacity:1"
             d="M 23.691329,4.1202311 C 17.623574,3.8778351 11.491404,5.8489511 6.7013395,9.5814687 1.9112753,13.313986 -1.4988346,18.778414 -2.7468208,24.721387 c -0.7348266,3.499281 -0.7322718,7.176734 0.2200355,10.623189 0.9523073,3.446455 2.87762873,6.649864 5.6169588,8.947909 2.3331846,1.957326 5.2324018,3.23185 8.2520375,3.627675 3.019636,0.395825 6.149396,-0.0884 8.908232,-1.378243 2.758836,-1.289846 5.137343,-3.380916 6.76994,-5.951811 1.632598,-2.570896 2.513721,-5.612851 2.507939,-8.658314"
             id="path10566-7"
             inkscape:path-effect="#path-effect10568-3"
             inkscape:original-d="M 23.691329,4.1202311 C 14.878877,10.987548 6.0661605,17.8546 -2.7468208,24.721387 c -8.8129812,6.866788 3.891594,13.047664 5.8369943,19.571098 1.9454,6.523434 17.6256975,-8.240199 26.4381485,-12.360693" />
          <path
             style="fill:none;stroke:#000000;stroke-width:0.784931;stroke-linecap:butt;stroke-linejoin:miter;stroke-miterlimit:4;stroke-dasharray:none;stroke-opacity:1"
             d="M 29.528322,31.931792 H 18.54104 l 3.721266,13.484548"
             id="path10570-5" />
        </g>
        <circle
           style="opacity:0.721312;fill:#000000;fill-rule:evenodd;stroke:#000000;stroke-width:0.785;stroke-linecap:round"
           id="path2070-3-2"
           cx="77.42601"
           cy="174.5948"
           r="1.8884393" />
        <circle
           style="opacity:0.721312;fill:#000000;fill-rule:evenodd;stroke:#000000;stroke-width:0.785;stroke-linecap:round"
           id="path2070-3-0"
           cx="87.89827"
           cy="174.76648"
           r="1.8884393" />
      </g>
      <path
         style="fill:none;stroke:#000000;stroke-width:0.784931;stroke-linecap:butt;stroke-linejoin:miter;stroke-miterlimit:4;stroke-dasharray:none;stroke-opacity:1"
         d="m 132.57875,178.88185 c 7.95113,-4.21957 14.56026,-10.92456 18.66492,-18.93561 4.10466,-8.01106 5.6863,-17.292 4.46673,-26.2104 -1.85288,-13.54964 -10.15953,-25.8412 -21.40114,-33.62916 -11.2416,-7.787966 -25.18744,-11.238374 -38.857235,-10.835009 -18.212214,0.537401 -36.561028,8.19235 -48.069367,22.317919 -7.350672,9.02236 -11.706413,20.40285 -12.482149,32.01464 -0.775735,11.61179 1.999357,23.40598 7.675212,33.56571 7.352394,13.16072 19.516192,23.46062 33.514064,29.0572 13.997873,5.59658 29.723925,6.54696 44.426975,3.21794 9.13054,-2.06731 17.88124,-5.72849 27.12486,-7.2104 19.05919,-3.05551 39.44785,4.00723 52.53294,18.19769"
         id="path8792"
         inkscape:path-effect="#path-effect8794"
         inkscape:original-d="m 132.57875,178.88185 c 10.68654,-11.50043 12.44564,-33.64506 23.13165,-45.14601 10.68601,-11.50096 -47.90492,-35.438523 -60.258375,-44.464169 -14.0205,-10.243614 -14.077196,22.890439 -48.069367,22.317919 -33.992172,-0.57252 -1.9454,42.11819 -4.806937,65.58035 -2.861535,23.46217 44.979452,19.91471 77.941039,32.27514 32.96158,12.36043 22.77599,-5.26447 27.12486,-7.2104 4.34886,-1.94593 35.02223,12.13206 52.53294,18.19769"
         sodipodi:nodetypes="cssssssc" />
      <rect
         style="opacity:0.721312;fill:none;fill-rule:evenodd;stroke:#000000;stroke-width:0.784931;stroke-linecap:round;stroke-miterlimit:4;stroke-dasharray:none"
         id="rect9011"
         width="12.017341"
         height="12.017341"
         x="121.32685"
         y="204.61678"
         transform="rotate(-8.2970583)" />
    </g>
  </g>
</svg>
